<?xml version="1.0" standalone="no"?>
<!DOCTYPE svg PUBLIC "-//W3C//DTD SVG 20010904//EN"
 "http://www.w3.org/TR/2001/REC-SVG-20010904/DTD/svg10.dtd">
<svg version="1.0" xmlns="http://www.w3.org/2000/svg"
 width="500.000000pt" height="500.000000pt" viewBox="0 0 500.000000 500.000000"
 preserveAspectRatio="xMidYMid meet">
<metadata>
Created by potrace 1.14, written by Peter Selinger 2001-2017
</metadata>
<g transform="translate(0.000000,500.000000) scale(0.100000,-0.100000)"
fill="#000000" stroke="none">
<path d="M0 2500 l0 -2500 2500 0 2500 0 0 2500 0 2500 -2500 0 -2500 0 0
-2500z m1147 1979 c476 -53 759 -312 813 -743 22 -171 -2 -370 -62 -515 -86
-206 -244 -358 -458 -440 -155 -60 -186 -63 -653 -68 -397 -4 -430 -3 -448 13
-18 17 -19 42 -19 879 0 656 3 864 12 873 16 16 677 17 815 1z m1645 -544
c123 -31 178 -64 703 -433 115 -81 131 -90 145 -77 9 8 30 20 47 26 37 12 67
0 150 -62 58 -43 75 -87 52 -130 -23 -45 -247 -364 -269 -384 -38 -34 -86 -26
-161 27 -86 62 -103 96 -74 151 14 27 13 28 -16 46 -58 35 -117 46 -163 30
-39 -13 -67 -52 -616 -839 -564 -807 -577 -825 -629 -852 -166 -87 -341 52
-289 229 11 36 164 263 584 864 l569 814 -2 70 c-3 148 -80 261 -228 335 -68
34 -71 35 -180 32 -60 -1 -130 -3 -155 -5 -40 -2 -45 0 -48 21 -4 28 11 41 94
81 156 75 326 95 486 56z m1333 -1524 c167 -43 342 -154 431 -272 107 -142
168 -355 115 -403 -21 -19 -109 -29 -362 -42 -103 -5 -152 -3 -167 5 -15 8
-28 34 -43 84 -31 105 -61 151 -112 176 -115 56 -245 -7 -295 -141 -32 -86
-45 -214 -39 -383 8 -247 47 -359 143 -406 39 -18 58 -21 127 -17 98 5 144 26
204 91 23 25 58 77 78 117 50 99 51 99 260 60 94 -18 183 -39 198 -47 51 -25
59 -84 27 -179 -62 -179 -237 -367 -421 -454 -122 -57 -206 -73 -384 -73 -134
0 -173 3 -240 21 -166 46 -286 120 -409 253 -165 179 -246 411 -246 706 0 492
270 840 714 918 113 20 316 13 421 -14z"/>
<path d="M865 4099 c-3 -8 -4 -237 -3 -509 l3 -495 63 -3 c178 -8 339 73 407
208 71 140 82 410 24 566 -40 107 -125 187 -232 219 -75 23 -255 32 -262 14z"/>
<path d="M3750 2340 c-267 -37 -469 -178 -579 -404 -64 -133 -91 -260 -91
-431 0 -572 373 -940 898 -886 271 28 479 169 598 405 67 133 71 127 -103 160
-82 16 -152 31 -158 33 -5 1 -25 -27 -44 -63 -71 -138 -168 -210 -312 -233
-110 -18 -205 8 -273 75 -45 44 -78 111 -103 209 -26 104 -26 470 1 570 54
204 173 306 341 293 70 -6 126 -32 172 -80 33 -34 75 -119 88 -177 l7 -34 82
6 c44 4 136 9 204 13 140 8 134 2 101 105 -52 159 -163 285 -319 361 -52 25
-124 54 -160 62 -79 20 -262 28 -350 16z"/>
</g>
</svg>
